<?xml version="1.0" encoding="UTF-8"?>
<mxfile host="app.diagrams.net" modified="2025-08-25T16:49:44.439Z" agent="5.0" etag="draw.io" version="24.7.17">
  <diagram name="AI-Quotation-Processor" id="aws-architecture">
    <mxGraphModel dx="1422" dy="794" grid="1" gridSize="10" guides="1" tooltips="1" connect="1" arrows="1" fold="1" page="1" pageScale="1" pageWidth="1169" pageHeight="827" math="0" shadow="0">
      <root>
        <mxCell id="0" />
        <mxCell id="1" parent="0" />
        
        <!-- Title -->
        <mxCell id="title" value="AI Quotation Processor Architecture" style="text;html=1;strokeColor=none;fillColor=none;align=center;verticalAlign=middle;whiteSpace=wrap;rounded=0;fontSize=20;fontStyle=1;" vertex="1" parent="1">
          <mxGeometry x="400" y="20" width="369" height="30" as="geometry" />
        </mxCell>
        
        <!-- User/Client -->
        <mxCell id="user" value="User" style="sketch=0;outlineConnect=0;fontColor=#232F3E;gradientColor=none;fillColor=#232F3D;strokeColor=none;dashed=0;verticalLabelPosition=bottom;verticalAlign=top;align=center;html=1;fontSize=12;fontStyle=0;aspect=fixed;pointerEvents=1;shape=mxgraph.aws4.user;" vertex="1" parent="1">
          <mxGeometry x="80" y="200" width="78" height="78" as="geometry" />
        </mxCell>
        
        <!-- CloudFront -->
        <mxCell id="cloudfront" value="CloudFront&#xa;Distribution" style="sketch=0;points=[[0,0,0],[0.25,0,0],[0.5,0,0],[0.75,0,0],[1,0,0],[0,1,0],[0.25,1,0],[0.5,1,0],[0.75,1,0],[1,1,0],[0,0.25,0],[0,0.5,0],[0,0.75,0],[1,0.25,0],[1,0.5,0],[1,0.75,0]];outlineConnect=0;fontColor=#232F3E;gradientColor=#F78E04;gradientDirection=north;fillColor=#D05C17;strokeColor=#ffffff;dashed=0;verticalLabelPosition=bottom;verticalAlign=top;align=center;html=1;fontSize=12;fontStyle=0;aspect=fixed;shape=mxgraph.aws4.resourceIcon;resIcon=mxgraph.aws4.cloudfront;" vertex="1" parent="1">
          <mxGeometry x="280" y="200" width="78" height="78" as="geometry" />
        </mxCell>
        
        <!-- S3 Web Bucket -->
        <mxCell id="s3web" value="S3 Bucket&#xa;(Web Frontend)" style="sketch=0;points=[[0,0,0],[0.25,0,0],[0.5,0,0],[0.75,0,0],[1,0,0],[0,1,0],[0.25,1,0],[0.5,1,0],[0.75,1,0],[1,1,0],[0,0.25,0],[0,0.5,0],[0,0.75,0],[1,0.25,0],[1,0.5,0],[1,0.75,0]];outlineConnect=0;fontColor=#232F3E;gradientColor=#60A337;gradientDirection=north;fillColor=#277116;strokeColor=#ffffff;dashed=0;verticalLabelPosition=bottom;verticalAlign=top;align=center;html=1;fontSize=12;fontStyle=0;aspect=fixed;shape=mxgraph.aws4.resourceIcon;resIcon=mxgraph.aws4.s3;" vertex="1" parent="1">
          <mxGeometry x="480" y="120" width="78" height="78" as="geometry" />
        </mxCell>
        
        <!-- API Gateway -->
        <mxCell id="apigateway" value="API Gateway&#xa;REST API" style="sketch=0;points=[[0,0,0],[0.25,0,0],[0.5,0,0],[0.75,0,0],[1,0,0],[0,1,0],[0.25,1,0],[0.5,1,0],[0.75,1,0],[1,1,0],[0,0.25,0],[0,0.5,0],[0,0.75,0],[1,0.25,0],[1,0.5,0],[1,0.75,0]];outlineConnect=0;fontColor=#232F3E;gradientColor=#FF4F8B;gradientDirection=north;fillColor=#BC1356;strokeColor=#ffffff;dashed=0;verticalLabelPosition=bottom;verticalAlign=top;align=center;html=1;fontSize=12;fontStyle=0;aspect=fixed;shape=mxgraph.aws4.resourceIcon;resIcon=mxgraph.aws4.api_gateway;" vertex="1" parent="1">
          <mxGeometry x="480" y="280" width="78" height="78" as="geometry" />
        </mxCell>
        
        <!-- Lambda Function -->
        <mxCell id="lambda" value="Lambda Function&#xa;Document Processor" style="sketch=0;points=[[0,0,0],[0.25,0,0],[0.5,0,0],[0.75,0,0],[1,0,0],[0,1,0],[0.25,1,0],[0.5,1,0],[0.75,1,0],[1,1,0],[0,0.25,0],[0,0.5,0],[0,0.75,0],[1,0.25,0],[1,0.5,0],[1,0.75,0]];outlineConnect=0;fontColor=#232F3E;gradientColor=#F78E04;gradientDirection=north;fillColor=#D05C17;strokeColor=#ffffff;dashed=0;verticalLabelPosition=bottom;verticalAlign=top;align=center;html=1;fontSize=12;fontStyle=0;aspect=fixed;shape=mxgraph.aws4.resourceIcon;resIcon=mxgraph.aws4.lambda;" vertex="1" parent="1">
          <mxGeometry x="680" y="280" width="78" height="78" as="geometry" />
        </mxCell>
        
        <!-- Lambda Layer -->
        <mxCell id="layer" value="Lambda Layer&#xa;(PyPDF2, FPDF)" style="sketch=0;points=[[0,0,0],[0.25,0,0],[0.5,0,0],[0.75,0,0],[1,0,0],[0,1,0],[0.25,1,0],[0.5,1,0],[0.75,1,0],[1,1,0],[0,0.25,0],[0,0.5,0],[0,0.75,0],[1,0.25,0],[1,0.5,0],[1,0.75,0]];outlineConnect=0;fontColor=#232F3E;gradientColor=#F78E04;gradientDirection=north;fillColor=#D05C17;strokeColor=#ffffff;dashed=0;verticalLabelPosition=bottom;verticalAlign=top;align=center;html=1;fontSize=12;fontStyle=0;aspect=fixed;shape=mxgraph.aws4.resourceIcon;resIcon=mxgraph.aws4.lambda;" vertex="1" parent="1">
          <mxGeometry x="680" y="380" width="58" height="58" as="geometry" />
        </mxCell>
        
        <!-- Bedrock -->
        <mxCell id="bedrock" value="Amazon Bedrock&#xa;Claude 3.5 Sonnet" style="sketch=0;points=[[0,0,0],[0.25,0,0],[0.5,0,0],[0.75,0,0],[1,0,0],[0,1,0],[0.25,1,0],[0.5,1,0],[0.75,1,0],[1,1,0],[0,0.25,0],[0,0.5,0],[0,0.75,0],[1,0.25,0],[1,0.5,0],[1,0.75,0]];outlineConnect=0;fontColor=#232F3E;gradientColor=#4AB29A;gradientDirection=north;fillColor=#116D5B;strokeColor=#ffffff;dashed=0;verticalLabelPosition=bottom;verticalAlign=top;align=center;html=1;fontSize=12;fontStyle=0;aspect=fixed;shape=mxgraph.aws4.resourceIcon;resIcon=mxgraph.aws4.bedrock;" vertex="1" parent="1">
          <mxGeometry x="880" y="200" width="78" height="78" as="geometry" />
        </mxCell>
        
        <!-- S3 Documents Bucket -->
        <mxCell id="s3docs" value="S3 Bucket&#xa;(Documents &amp; Reports)" style="sketch=0;points=[[0,0,0],[0.25,0,0],[0.5,0,0],[0.75,0,0],[1,0,0],[0,1,0],[0.25,1,0],[0.5,1,0],[0.75,1,0],[1,1,0],[0,0.25,0],[0,0.5,0],[0,0.75,0],[1,0.25,0],[1,0.5,0],[1,0.75,0]];outlineConnect=0;fontColor=#232F3E;gradientColor=#60A337;gradientDirection=north;fillColor=#277116;strokeColor=#ffffff;dashed=0;verticalLabelPosition=bottom;verticalAlign=top;align=center;html=1;fontSize=12;fontStyle=0;aspect=fixed;shape=mxgraph.aws4.resourceIcon;resIcon=mxgraph.aws4.s3;" vertex="1" parent="1">
          <mxGeometry x="880" y="360" width="78" height="78" as="geometry" />
        </mxCell>
        
        <!-- DynamoDB -->
        <mxCell id="dynamodb" value="DynamoDB&#xa;Quotations Table" style="sketch=0;points=[[0,0,0],[0.25,0,0],[0.5,0,0],[0.75,0,0],[1,0,0],[0,1,0],[0.25,1,0],[0.5,1,0],[0.75,1,0],[1,1,0],[0,0.25,0],[0,0.5,0],[0,0.75,0],[1,0.25,0],[1,0.5,0],[1,0.75,0]];outlineConnect=0;fontColor=#232F3E;gradientColor=#4D72F3;gradientDirection=north;fillColor=#3334B9;strokeColor=#ffffff;dashed=0;verticalLabelPosition=bottom;verticalAlign=top;align=center;html=1;fontSize=12;fontStyle=0;aspect=fixed;shape=mxgraph.aws4.resourceIcon;resIcon=mxgraph.aws4.dynamodb;" vertex="1" parent="1">
          <mxGeometry x="680" y="480" width="78" height="78" as="geometry" />
        </mxCell>
        
        <!-- IAM Role -->
        <mxCell id="iam" value="IAM Role&#xa;Lambda Execution" style="sketch=0;points=[[0,0,0],[0.25,0,0],[0.5,0,0],[0.75,0,0],[1,0,0],[0,1,0],[0.25,1,0],[0.5,1,0],[0.75,1,0],[1,1,0],[0,0.25,0],[0,0.5,0],[0,0.75,0],[1,0.25,0],[1,0.5,0],[1,0.75,0]];outlineConnect=0;fontColor=#232F3E;gradientColor=#F54749;gradientDirection=north;fillColor=#C7131F;strokeColor=#ffffff;dashed=0;verticalLabelPosition=bottom;verticalAlign=top;align=center;html=1;fontSize=12;fontStyle=0;aspect=fixed;shape=mxgraph.aws4.resourceIcon;resIcon=mxgraph.aws4.iam;" vertex="1" parent="1">
          <mxGeometry x="480" y="480" width="78" height="78" as="geometry" />
        </mxCell>
        
        <!-- CloudWatch Logs -->
        <mxCell id="cloudwatch" value="CloudWatch&#xa;Logs" style="sketch=0;points=[[0,0,0],[0.25,0,0],[0.5,0,0],[0.75,0,0],[1,0,0],[0,1,0],[0.25,1,0],[0.5,1,0],[0.75,1,0],[1,1,0],[0,0.25,0],[0,0.5,0],[0,0.75,0],[1,0.25,0],[1,0.5,0],[1,0.75,0]];outlineConnect=0;fontColor=#232F3E;gradientColor=#F34482;gradientDirection=north;fillColor=#BC1356;strokeColor=#ffffff;dashed=0;verticalLabelPosition=bottom;verticalAlign=top;align=center;html=1;fontSize=12;fontStyle=0;aspect=fixed;shape=mxgraph.aws4.resourceIcon;resIcon=mxgraph.aws4.cloudwatch;" vertex="1" parent="1">
          <mxGeometry x="280" y="480" width="78" height="78" as="geometry" />
        </mxCell>
        
        <!-- Connections -->
        
        <!-- User to CloudFront -->
        <mxCell id="conn1" value="HTTPS" style="endArrow=classic;html=1;rounded=0;strokeColor=#232F3E;strokeWidth=2;" edge="1" parent="1" source="user" target="cloudfront">
          <mxGeometry width="50" height="50" relative="1" as="geometry">
            <mxPoint x="200" y="300" as="sourcePoint" />
            <mxPoint x="250" y="250" as="targetPoint" />
          </mxGeometry>
        </mxCell>
        
        <!-- CloudFront to S3 Web -->
        <mxCell id="conn2" value="Static Content" style="endArrow=classic;html=1;rounded=0;strokeColor=#232F3E;strokeWidth=2;" edge="1" parent="1" source="cloudfront" target="s3web">
          <mxGeometry width="50" height="50" relative="1" as="geometry">
            <mxPoint x="400" y="200" as="sourcePoint" />
            <mxPoint x="450" y="150" as="targetPoint" />
          </mxGeometry>
        </mxCell>
        
        <!-- CloudFront to API Gateway -->
        <mxCell id="conn3" value="API Calls" style="endArrow=classic;html=1;rounded=0;strokeColor=#232F3E;strokeWidth=2;" edge="1" parent="1" source="cloudfront" target="apigateway">
          <mxGeometry width="50" height="50" relative="1" as="geometry">
            <mxPoint x="400" y="300" as="sourcePoint" />
            <mxPoint x="450" y="250" as="targetPoint" />
          </mxGeometry>
        </mxCell>
        
        <!-- API Gateway to Lambda -->
        <mxCell id="conn4" value="Invoke" style="endArrow=classic;html=1;rounded=0;strokeColor=#232F3E;strokeWidth=2;" edge="1" parent="1" source="apigateway" target="lambda">
          <mxGeometry width="50" height="50" relative="1" as="geometry">
            <mxPoint x="600" y="350" as="sourcePoint" />
            <mxPoint x="650" y="300" as="targetPoint" />
          </mxGeometry>
        </mxCell>
        
        <!-- Lambda to Bedrock -->
        <mxCell id="conn5" value="AI Processing" style="endArrow=classic;html=1;rounded=0;strokeColor=#232F3E;strokeWidth=2;" edge="1" parent="1" source="lambda" target="bedrock">
          <mxGeometry width="50" height="50" relative="1" as="geometry">
            <mxPoint x="800" y="280" as="sourcePoint" />
            <mxPoint x="850" y="230" as="targetPoint" />
          </mxGeometry>
        </mxCell>
        
        <!-- Lambda to S3 Docs -->
        <mxCell id="conn6" value="Store Files" style="endArrow=classic;html=1;rounded=0;strokeColor=#232F3E;strokeWidth=2;" edge="1" parent="1" source="lambda" target="s3docs">
          <mxGeometry width="50" height="50" relative="1" as="geometry">
            <mxPoint x="800" y="350" as="sourcePoint" />
            <mxPoint x="850" y="400" as="targetPoint" />
          </mxGeometry>
        </mxCell>
        
        <!-- Lambda to DynamoDB -->
        <mxCell id="conn7" value="Store Data" style="endArrow=classic;html=1;rounded=0;strokeColor=#232F3E;strokeWidth=2;" edge="1" parent="1" source="lambda" target="dynamodb">
          <mxGeometry width="50" height="50" relative="1" as="geometry">
            <mxPoint x="720" y="400" as="sourcePoint" />
            <mxPoint x="720" y="450" as="targetPoint" />
          </mxGeometry>
        </mxCell>
        
        <!-- Lambda to CloudWatch -->
        <mxCell id="conn8" value="Logs" style="endArrow=classic;html=1;rounded=0;strokeColor=#232F3E;strokeWidth=2;" edge="1" parent="1" source="lambda" target="cloudwatch">
          <mxGeometry width="50" height="50" relative="1" as="geometry">
            <mxPoint x="600" y="400" as="sourcePoint" />
            <mxPoint x="400" y="500" as="targetPoint" />
          </mxGeometry>
        </mxCell>
        
        <!-- IAM to Lambda (dashed) -->
        <mxCell id="conn9" value="Permissions" style="endArrow=classic;html=1;rounded=0;strokeColor=#232F3E;strokeWidth=2;dashed=1;" edge="1" parent="1" source="iam" target="lambda">
          <mxGeometry width="50" height="50" relative="1" as="geometry">
            <mxPoint x="580" y="450" as="sourcePoint" />
            <mxPoint x="650" y="380" as="targetPoint" />
          </mxGeometry>
        </mxCell>
        
        <!-- Lambda Layer to Lambda (dashed) -->
        <mxCell id="conn10" value="Dependencies" style="endArrow=classic;html=1;rounded=0;strokeColor=#232F3E;strokeWidth=2;dashed=1;" edge="1" parent="1" source="layer" target="lambda">
          <mxGeometry width="50" height="50" relative="1" as="geometry">
            <mxPoint x="720" y="380" as="sourcePoint" />
            <mxPoint x="720" y="360" as="targetPoint" />
          </mxGeometry>
        </mxCell>
        
        <!-- Process Flow Labels -->
        <mxCell id="flow1" value="1. Upload PDF/Word" style="text;html=1;strokeColor=none;fillColor=#E1F5FE;align=center;verticalAlign=middle;whiteSpace=wrap;rounded=1;fontSize=10;fontStyle=1;" vertex="1" parent="1">
          <mxGeometry x="180" y="160" width="100" height="30" as="geometry" />
        </mxCell>
        
        <mxCell id="flow2" value="2. Extract Text" style="text;html=1;strokeColor=none;fillColor=#E8F5E8;align=center;verticalAlign=middle;whiteSpace=wrap;rounded=1;fontSize=10;fontStyle=1;" vertex="1" parent="1">
          <mxGeometry x="600" y="240" width="80" height="30" as="geometry" />
        </mxCell>
        
        <mxCell id="flow3" value="3. AI Analysis" style="text;html=1;strokeColor=none;fillColor=#FFF3E0;align=center;verticalAlign=middle;whiteSpace=wrap;rounded=1;fontSize=10;fontStyle=1;" vertex="1" parent="1">
          <mxGeometry x="800" y="160" width="80" height="30" as="geometry" />
        </mxCell>
        
        <mxCell id="flow4" value="4. Generate PO" style="text;html=1;strokeColor=none;fillColor=#F3E5F5;align=center;verticalAlign=middle;whiteSpace=wrap;rounded=1;fontSize=10;fontStyle=1;" vertex="1" parent="1">
          <mxGeometry x="800" y="320" width="80" height="30" as="geometry" />
        </mxCell>
        
        <mxCell id="flow5" value="5. Store Results" style="text;html=1;strokeColor=none;fillColor=#E3F2FD;align=center;verticalAlign=middle;whiteSpace=wrap;rounded=1;fontSize=10;fontStyle=1;" vertex="1" parent="1">
          <mxGeometry x="600" y="440" width="80" height="30" as="geometry" />
        </mxCell>
        
        <!-- Features Box -->
        <mxCell id="features" value="Key Features:&#xa;• PDF/Word document processing&#xa;• AI-powered data extraction&#xa;• Automatic PO generation&#xa;• Secure cloud storage&#xa;• Real-time processing&#xa;• Cost-optimized architecture" style="text;html=1;strokeColor=#666666;fillColor=#f5f5f5;align=left;verticalAlign=top;whiteSpace=wrap;rounded=1;fontSize=11;fontStyle=0;spacing=5;" vertex="1" parent="1">
          <mxGeometry x="80" y="320" width="180" height="120" as="geometry" />
        </mxCell>
        
        <!-- Cost Info Box -->
        <mxCell id="costs" value="Cost Optimization:&#xa;• Pay-per-request Lambda&#xa;• On-demand DynamoDB&#xa;• Bedrock per-token pricing&#xa;• CloudFront edge caching&#xa;• S3 lifecycle policies" style="text;html=1;strokeColor=#666666;fillColor=#f5f5f5;align=left;verticalAlign=top;whiteSpace=wrap;rounded=1;fontSize=11;fontStyle=0;spacing=5;" vertex="1" parent="1">
          <mxGeometry x="980" y="480" width="160" height="100" as="geometry" />
        </mxCell>
        
      </root>
    </mxGraphModel>
  </diagram>
</mxfile>
